<?xml version="1.0" encoding="UTF-8"?>
<svg width="125px" height="37px" viewBox="0 0 125 37" version="1.1" xmlns="http://www.w3.org/2000/svg" xmlns:xlink="http://www.w3.org/1999/xlink">
    <!-- Generator: Sketch 48.2 (47327) - http://www.bohemiancoding.com/sketch -->
    <title>logo</title>
    <desc>Created with Sketch.</desc>
    <defs></defs>
    <g id="Typeform" stroke="none" stroke-width="1" fill="none" fill-rule="evenodd" transform="translate(-560.000000, -318.000000)">
        <g id="logo" transform="translate(560.000000, 318.000000)">
            <g id="Group-Copy-2" fill-rule="nonzero">
                <polygon id="Combined-Shape" fill="#9B3233" points="28.7317073 37 0 37 28.7317073 8.325"></polygon>
                <polygon id="Path" fill="#484F58" points="32.4390244 37 38 37 38 0 32.4390244 5.60606061"></polygon>
            </g>
            <g id="Rarec-In" transform="translate(47.000000, 19.000000)" fill="#484F58">
                <path d="M6.40732373,9.60437133 L2.68242172,9.60437133 L2.68242172,16.1291403 L0.580357143,16.1291403 L0.580357143,0 L5.83007283,0 C7.61629208,0 8.99042591,0.413563565 9.95251555,1.2407031 C10.9146052,2.06784264 11.3956428,3.27160801 11.3956428,4.85203534 C11.3956428,5.85641907 11.1288031,6.73154911 10.5951156,7.47745173 C10.0614281,8.22335435 9.31899652,8.78092665 8.36779847,9.15018537 L12.0927005,15.9962078 L12.0927005,16.1291403 L9.84904605,16.1291403 L6.40732373,9.60437133 Z M2.68242172,7.86517145 L5.89542199,7.86517145 C6.93375269,7.86517145 7.75968518,7.59192409 8.37324423,7.04542118 C8.98680328,6.49891828 9.2935782,5.76779697 9.2935782,4.85203534 C9.2935782,3.85503679 9.00132517,3.09068271 8.41681033,2.55895015 C7.8322955,2.02721759 6.98821065,1.75766276 5.88453046,1.75027759 L2.68242172,1.75027759 L2.68242172,7.86517145 Z M21.2851487,16.1291403 C21.1689718,15.8928147 21.0745795,15.4718661 21.001969,14.8662818 C20.0652931,15.8558952 18.9471075,16.3506944 17.6473789,16.3506944 C16.4856103,16.3506944 15.5326113,16.0165203 14.7883532,15.348162 C14.0440952,14.6798037 13.6719718,13.8323677 13.6719718,12.8058284 C13.6719718,11.557734 14.1384875,10.5884444 15.0715329,9.89793055 C16.0045783,9.20741674 17.3169941,8.86216501 19.0088197,8.86216501 L20.9692944,8.86216501 L20.9692944,7.92055998 C20.9692944,7.20419806 20.758727,6.63370189 20.3375859,6.20905436 C19.9164448,5.78440683 19.295634,5.57208625 18.4751349,5.57208625 C17.7562906,5.57208625 17.1536321,5.75671284 16.6671415,6.12597156 C16.1806509,6.49523029 15.9374093,6.94202664 15.9374093,7.46637402 L13.9115854,7.46637402 C13.9115854,6.86817489 14.1203375,6.29029366 14.5378481,5.73271299 C14.9553587,5.17513232 15.5217124,4.73387477 16.2369262,4.40892709 C16.95214,4.08397942 17.7381373,3.92150802 18.5949417,3.92150802 C19.9527588,3.92150802 21.0164872,4.26675974 21.7861589,4.95727355 C22.5558306,5.64778736 22.9551826,6.59861431 22.9842268,7.80978292 L22.9842268,13.3264806 C22.9842268,14.4268716 23.1221847,15.3020017 23.3981048,15.951897 L23.3981048,16.1291403 L21.2851487,16.1291403 Z M17.9414501,14.5671837 C18.5731618,14.5671837 19.1721897,14.4010198 19.738552,14.068687 C20.3049142,13.7363541 20.7151575,13.3043279 20.9692944,12.7725953 L20.9692944,10.3133445 L19.3900231,10.3133445 C16.9212648,10.3133445 15.6869042,11.0481584 15.6869042,12.5178081 C15.6869042,13.1603183 15.8974716,13.6625026 16.3186127,14.0243761 C16.7397538,14.3862497 17.2806942,14.5671837 17.9414501,14.5671837 Z M31.8390377,5.98196138 C31.5340734,5.93026516 31.2037004,5.90441744 30.8479088,5.90441744 C29.526397,5.90441744 28.6296703,6.47675987 28.1577018,7.62146191 L28.1577018,16.1291403 L26.1427694,16.1291403 L26.1427694,4.14306214 L28.1032442,4.14306214 L28.1359187,5.52777543 C28.7966746,4.45692513 29.7333365,3.92150802 30.9459325,3.92150802 C31.3380294,3.92150802 31.6357282,3.97320346 31.8390377,4.0765959 L31.8390377,5.98196138 Z M38.3739535,16.3506944 C36.7765216,16.3506944 35.4768125,15.8171236 34.4747871,14.7499659 C33.4727616,13.6828082 32.9717564,12.2556446 32.9717564,10.4684324 L32.9717564,10.0917904 C32.9717564,8.90277732 33.1950305,7.84117442 33.6415853,6.90694986 C34.0881401,5.97272529 34.7125814,5.24160399 35.5149278,4.71356401 C36.3172743,4.18552404 37.1867724,3.92150802 38.1234484,3.92150802 C39.6555308,3.92150802 40.8463257,4.43476994 41.695869,5.46130919 C42.5454123,6.48784843 42.9701776,7.9574761 42.9701776,9.87023628 L42.9701776,10.7232197 L34.9866888,10.7232197 C35.015733,11.9048476 35.3551822,12.859367 36.0050465,13.5868067 C36.6549108,14.3142464 37.4808433,14.6779608 38.4828688,14.6779608 C39.194452,14.6779608 39.7971105,14.5302595 40.2908621,14.2348525 C40.7846138,13.9394456 41.21664,13.5480372 41.5869538,13.0606157 L42.8176962,14.0354538 C41.8301929,15.5789553 40.3489601,16.3506944 38.3739535,16.3506944 Z M38.1234484,5.60531937 C37.3102104,5.60531937 36.6276815,5.90626071 36.0758414,6.50815243 C35.5240013,7.11004415 35.1827369,7.95378767 35.052038,9.03940831 L40.9552452,9.03940831 L40.9552452,8.88432042 C40.8971568,7.84301083 40.6212409,7.03619262 40.1274892,6.4638416 C39.6337376,5.89149059 38.9657306,5.60531937 38.1234484,5.60531937 Z M50.0278867,14.6779608 C50.746731,14.6779608 51.3748027,14.4564089 51.9121207,14.0132984 C52.4494387,13.570188 52.7471374,13.0163082 52.8052259,12.3516425 L54.711243,12.3516425 C54.6749377,13.0384637 54.4425875,13.6920418 54.0141853,14.3123965 C53.5857831,14.9327511 53.0139837,15.4275504 52.2987699,15.7968091 C51.5835561,16.1660679 50.8266026,16.3506944 50.0278867,16.3506944 C48.4231938,16.3506944 47.1470827,15.806046 46.1995152,14.7167328 C45.2519476,13.6274195 44.778171,12.1374829 44.778171,10.2468783 L44.778171,9.9034694 C44.778171,8.73661184 44.9887384,7.69901039 45.4098795,6.79063394 C45.8310206,5.88225748 46.4354943,5.1769839 47.2233186,4.67479204 C48.011143,4.17260018 48.9423592,3.92150802 50.0169951,3.92150802 C51.3385069,3.92150802 52.4367249,4.32399399 53.3116819,5.128978 C54.1866388,5.93396201 54.6531546,6.97894852 54.711243,8.26396887 L52.8052259,8.26396887 C52.7471374,7.48852556 52.4585149,6.85156382 51.9393495,6.35306454 C51.4201842,5.85456527 50.7794058,5.60531937 50.0169951,5.60531937 C48.9931865,5.60531937 48.1999283,5.98011135 47.6371966,6.72970655 C47.074465,7.47930176 46.7931033,8.56305985 46.7931033,9.98101334 L46.7931033,10.3687331 C46.7931033,11.7497607 47.0726497,12.8132098 47.6317509,13.5591125 C48.190852,14.3050151 48.989556,14.6779608 50.0278867,14.6779608 Z M65.058193,16.1291403 L62.9670199,16.1291403 L62.9670199,0 L65.058193,0 L65.058193,16.1291403 Z M70.4712816,4.14306214 L70.5366307,5.64963019 C71.4370014,4.49754298 72.6132745,3.92150802 74.0654853,3.92150802 C76.5560267,3.92150802 77.8121702,5.35051783 77.8339534,8.20858034 L77.8339534,16.1291403 L75.819021,16.1291403 L75.819021,8.19750263 C75.8117599,7.33343723 75.6175297,6.69462922 75.2363243,6.28105945 C74.855119,5.86748968 74.2615368,5.6607079 73.4555598,5.6607079 C72.8020649,5.6607079 72.2284503,5.83794943 71.7346986,6.1924378 C71.240947,6.54692617 70.8561169,7.01218518 70.5801968,7.58822879 L70.5801968,16.1291403 L68.5652645,16.1291403 L68.5652645,4.14306214 L70.4712816,4.14306214 Z"></path>
            </g>
        </g>
    </g>
</svg>
